<svg id="Layer_1" enable-background="new 0 0 512.09 512.09" height="512" viewBox="0 0 512.09 512.09" width="512" xmlns="http://www.w3.org/2000/svg"><g><path d="m0 216.547.231 96.333c.409 30.528 10.18 60.661 25.193 87.545 23.8 42.621 67.932 81.967 146.99 81.967 120.47 0 119.101-64.651 182.074-80.483s99.045-10.832 138.29-50.335c1.055-1.062 2.106-2.233 3.141-3.478 10.634-12.792 16.172-28.83 16.172-45.222v-111.089z" fill="#ffe470"/><path d="m256.045 466.538c42.401-20.201 55.388-53.84 98.442-64.665 62.973-15.833 99.045-10.832 138.29-50.335 1.055-1.062 2.106-2.233 3.141-3.478 10.634-12.792 16.172-28.83 16.172-45.222v-111.088l-256.045 12.38z" fill="#ffcd00"/><path d="m487.834 151.703s-39.966-107.005-242.373-107.005-239.184 129.325-229.192 186.937c9.336 53.832 47.412 143.103 160.863 143.103s112.162-63.172 171.466-78.642c59.304-15.471 98.141-6.453 130.233-49.184 34.765-46.29 9.003-95.209 9.003-95.209z" fill="#ff865b"/><g><path d="m308.429 136.241c103.973.504 156.565 20.356 188.591 44.113-2.275-17.139-8.336-28.651-8.336-28.651s-39.967-107.005-242.374-107.005c-41.072 0-75.323 5.325-103.749 14.296 21.399 31.377 69.058 76.777 165.868 77.247z" fill="#ff3b5b"/></g><path d="m256.045 54.335v314.403c39.808-19.747 52.061-52.545 92.553-63.108 59.304-15.471 98.141-6.453 130.233-49.184 34.765-46.29 9.003-95.208 9.003-95.208s-38.57-103.25-231.789-106.903z" fill="#ff3b5b"/><path d="m256.045 44.783v86.248c15.618 3.219 33.014 5.115 52.384 5.209 103.973.504 156.565 20.356 188.591 44.113-2.275-17.139-8.336-28.651-8.336-28.651s-38.681-103.554-232.639-106.919z" fill="#cd2f44"/><ellipse cx="175.105" cy="225.054" fill="#fbf1f2" rx="62.197" ry="46.92"/><path d="m177.238 389.738c-28.814 0-55.064-5.452-78.021-16.205-20.188-9.456-37.955-23.051-52.808-40.404-30.123-35.196-40.972-77.091-44.759-98.931-5.427-31.303 1.338-83.433 38.268-127.331 19.78-23.514 45.821-42.002 77.4-54.953 35.945-14.741 79.087-22.216 128.227-22.216 47.667 0 90.626 5.854 127.681 17.398 30.152 9.394 56.531 22.565 78.404 39.15 29.87 22.648 45.253 47.561 49.94 59.38 3.805 7.778 26.97 60.068-10.738 110.293-26.525 35.329-57.579 40.238-93.535 45.922-14.043 2.22-28.564 4.516-44.862 8.769-18.883 4.928-30.779 15.944-44.552 28.702-24.257 22.466-54.444 50.426-130.645 50.426zm68.307-330.04c-82.921 0-146.091 22.99-182.68 66.484-30.295 36.013-35.992 77.934-31.665 102.889 3.261 18.807 12.532 54.799 37.991 84.547 26.191 30.604 62.543 46.12 108.046 46.12 64.448 0 86.705-20.614 110.268-42.438 15.335-14.203 31.192-28.891 57.358-35.719 17.727-4.625 33.677-7.147 47.751-9.371 33.125-5.236 55.009-8.696 74.236-34.306 28.394-37.818 8.545-77.606 7.686-79.282-.323-.614-.493-.976-.722-1.612-.517-1.265-10.529-24.907-42.17-48.253-54.951-40.548-131.532-49.059-186.099-49.059z" fill="#fff9bf"/><path d="m451.63 86.14c-21.873-16.585-48.252-29.757-78.404-39.15-34.312-10.69-73.694-16.49-117.181-17.292v30c53.574 1.086 124.089 10.944 175.6 48.953 31.641 23.346 41.653 46.988 42.17 48.253.229.637.399.998.722 1.612.859 1.676 20.708 41.464-7.686 79.282-19.227 25.609-41.111 29.069-74.236 34.306-14.073 2.224-30.024 4.746-47.751 9.371-26.167 6.828-42.023 21.516-57.358 35.719-9.697 8.981-19.175 17.756-31.462 24.975v33.423c23.462-10.106 38.542-24.071 51.838-36.386 13.773-12.758 25.669-23.774 44.552-28.702 16.298-4.253 30.819-6.549 44.862-8.769 35.957-5.684 67.011-10.593 93.535-45.922 37.708-50.225 14.544-102.515 10.738-110.293-4.685-11.819-20.068-36.731-49.939-59.38z" fill="#ffe470"/></g></svg>