<svg id="Layer_1" enable-background="new 0 0 511.304 511.304" height="512" viewBox="0 0 511.304 511.304" width="512" xmlns="http://www.w3.org/2000/svg"><g><path d="m36.175 405.994 13.289 46.579c3.984 13.963 16.744 23.592 31.264 23.592h349.865c14.513 0 27.268-9.619 31.258-23.572l13.279-46.43z" fill="#e3dff6"/><path d="m253.301 476.165h177.291c14.513 0 27.268-9.619 31.258-23.572l13.279-46.43-221.829-.085v70.087z" fill="#b7b3e2"/><path d="m36.192 394.107c0-104.902 77.84-195.901 185.479-213.149l166.091 44.88c61.129 48.424 82.582 106.51 82.582 168.269z" fill="#d45c1e"/><path d="m253.301 189.505v204.602h217.044c0-61.758-21.454-119.845-82.582-168.269z" fill="#a44613"/><path d="m384.217 185.187 63.938-63.938 24.464-.825c12.167-.41 22.188-9.689 23.533-21.788 1.526-13.737-8.602-26.018-22.378-27.135l-12.794-1.037s-1.038-12.795-1.038-12.795c-1.117-13.776-13.398-23.904-27.135-22.378-12.099 1.344-21.378 11.366-21.788 23.533l-.825 24.464-44.637 44.637-19.301 19.303z" fill="#f9dfd4"/><path d="m221.672 180.958c-35.876 35.876-35.568 94.234.923 129.724 36.038 35.05 94.337 34.023 129.176-2.22 14.093-14.661 22.318-32.878 24.677-51.691 1.998-15.927 9.069-30.786 20.42-42.136 15.299-15.299 15.299-40.103 0-55.402l-24.656-24.656c-15.299-15.299-40.103-15.299-55.402 0l-.001.001c-11.322 11.322-26.129 18.432-42.018 20.404-19.42 2.41-38.211 11.068-53.119 25.976z" fill="#ff8a3c"/><path d="m76.487 269.953c4.421 18.525 14.736 46.161 38.741 70.166 2.929 2.929 6.768 4.394 10.606 4.394s7.678-1.465 10.606-4.394c5.858-5.857 5.858-15.355 0-21.213-30.925-30.925-33.231-70.502-33.269-71.228-.099-2.379-.764-4.597-1.836-6.553-9.126 8.892-17.439 18.542-24.848 28.828z" fill="#a44613"/><g><path d="m496.304 420.876h-481.304c-8.284 0-15-6.716-15-15s6.716-15 15-15h481.304c8.284 0 15 6.716 15 15s-6.716 15-15 15z" fill="#fff5f5"/></g><path d="m372.211 134.581c-15.299-15.299-40.103-15.299-55.402 0l-.001.001c-11.322 11.322-26.129 18.432-42.018 20.404-7.31.907-14.53 2.702-21.488 5.38v169.935c33.187 12.684 72.397 5.288 98.469-21.835 14.093-14.661 22.318-32.878 24.677-51.691 1.998-15.927 9.069-30.786 20.42-42.136 15.299-15.299 15.299-40.103 0-55.402z" fill="#d45c1e"/><path d="m496.304 390.876h-243.003v30h243.003c8.284 0 15-6.716 15-15s-6.716-15-15-15z" fill="#e3dff6"/></g></svg>