<svg id="Layer_1" enable-background="new 0 0 511.281 511.281" height="512" viewBox="0 0 511.281 511.281" width="512" xmlns="http://www.w3.org/2000/svg"><g><path d="m213.13 123.593c-1.111-12.036-6.274-21.126-15.488-30.34-20.956-20.956-54.931-20.956-75.886 0-.514.514-1.005 1.042-1.494 1.572-21.079-18.443-53.138-17.631-73.232 2.464-14.722 14.722-19.101 35.871-13.138 54.416v127.211l223.406-1.188z" fill="#006c00"/><path d="m509.336 65.427c-2.882-8.243-11.9-12.595-20.143-9.707l-1.987.695 15.157-33.812c3.572-7.968.008-17.323-7.96-20.895-7.97-3.573-17.323-.007-20.895 7.96l-14.521 32.392-12.057-31.843c-3.092-8.166-12.221-12.282-20.386-9.188-8.167 3.092-12.28 12.22-9.188 20.386l23.301 61.536-9.022 20.126c-3.572 7.968-.008 17.323 7.96 20.895 2.101.942 4.297 1.388 6.458 1.388 6.039 0 11.807-3.48 14.437-9.348l8.909-19.874 30.23-10.568c8.243-2.881 12.589-11.9 9.707-20.143z" fill="#44cc29"/><circle cx="57.591" cy="201.991" fill="#ff865b" r="56.537"/><path d="m436.194 257.86 35.185-97.866c7.998-22.306-3.6-46.871-25.906-54.869-22.306-7.998-46.871 3.6-54.869 25.906l-43.075 125.672z" fill="#ff3b5b"/><g><path d="m238.937 132.199c3.946-22.256 13.144-37.04 30.312-54.26l39.417-44.821c4.083-4.642 11.311-4.652 15.407-.022l39.536 44.7c25.208 25.131 29.446 45.471 31.82 79.639l-78.62 91.282z" fill="#009954"/></g><g><path d="m316.493 206.851c-.037 0-.074 0-.111 0-8.732-.061-15.762-7.188-15.702-15.92l.524-75.725c.061-8.732 7.237-15.761 15.92-15.702 8.732.061 15.762 7.188 15.702 15.92l-.524 75.725c-.061 8.695-7.127 15.702-15.809 15.702z" fill="#005727"/></g><g><path d="m302.751 258.528-33.032-.014c-57.185-.025-103.522-46.295-103.497-103.347l.011-25.84c.002-3.93 3.189-7.114 7.118-7.112l25.917.011c44.282.019 83.204 30.423 97.985 69.436z" fill="#6ff14c"/></g><g><path d="m300.908 192.702c15.497-25.115 44.551-43.751 76.283-43.799l14.439-.022c3.93-.006 7.12 3.175 7.126 7.104l.022 14.389c.074 48.594-39.351 88.047-88.058 88.121l-21.554.033z" fill="#00cc71"/></g><path d="m238.853 130.578v123.252c9.748 3.038 20.115 4.678 30.866 4.683l33.032.014-5.497-66.866c-10.135-26.749-31.621-49.447-58.401-61.083z" fill="#44cc29"/><g><ellipse cx="289.762" cy="224.68" fill="#ff9100" rx="33.927" ry="33.848"/></g><path d="m25.486 245.879h428.524c4.126 0 7.471 3.345 7.471 7.471v36.197c0 122.46-99.273 221.733-221.733 221.733-122.46 0-221.733-99.273-221.733-221.733v-36.197c0-4.126 3.345-7.471 7.471-7.471z" fill="#fff9bf"/><path d="m239.748 511.281c122.46 0 221.734-99.273 221.734-221.733v-36.198c0-4.126-3.345-7.471-7.471-7.471h-215.158v265.39c.299.002.596.012.895.012z" fill="#ffe470"/><path d="m23.396 337.779h432.914c2.27-10.234 3.845-20.729 4.647-31.441-.744-.107-1.499-.182-2.273-.182h-437.451c-.847 0-1.671.086-2.482.214.803 10.701 2.377 21.186 4.645 31.409z" fill="#ff3b5b"/><path d="m238.853 306.157v31.623h217.457c2.27-10.234 3.845-20.729 4.647-31.441-.744-.107-1.499-.182-2.273-.182z" fill="#cd2f44"/></g></svg>